<svg version="1.1" id="Layer_1" xmlns="http://www.w3.org/2000/svg" xmlns:xlink="http://www.w3.org/1999/xlink" x="0px" y="0px"
	 width="100%" viewBox="0 0 1024 1024" enable-background="new 0 0 1024 1024" xml:space="preserve">
<path fill="#000000" opacity="1.000000" stroke="none" 
	d="
M448.035400,570.907349 
	C439.213806,558.659424 438.276123,545.513184 443.367615,532.265686 
	C446.718292,523.547546 453.655640,517.585693 462.263214,513.318115 
	C489.047211,500.039062 515.633057,486.360352 542.303833,472.852692 
	C568.107544,459.784210 593.919800,446.732513 619.734375,433.685516 
	C621.365845,432.860962 623.123352,432.235901 624.126221,430.144409 
	C620.879639,426.485443 615.957825,425.403229 611.943726,422.997070 
	C602.853699,417.548309 593.194214,413.055603 583.842773,408.031677 
	C581.883484,406.979034 580.424683,406.844910 578.359131,407.909943 
	C554.782715,420.066315 531.140869,432.095825 507.520203,444.166382 
	C501.005402,447.495544 494.831055,446.149628 491.965698,440.749420 
	C489.096527,435.342072 491.475250,429.109131 497.879913,425.850006 
	C519.193298,415.004517 540.592407,404.326477 561.870117,393.411743 
	C582.422363,382.869171 602.890015,372.163544 623.694946,362.118469 
	C625.051147,361.463684 626.823608,360.818268 627.461853,358.221466 
	C620.800842,354.629181 614.036621,350.905365 607.204773,347.309998 
	C576.489624,331.145660 545.740601,315.045898 515.034607,298.864349 
	C500.827301,291.377380 500.851257,291.300812 486.552002,298.515930 
	C455.913147,313.975861 425.539551,329.992371 394.555969,344.726715 
	C375.333588,353.868011 351.086792,345.267578 345.583954,320.487091 
	C344.788483,316.904999 344.681671,313.296967 344.574097,309.041260 
	C332.990021,314.880859 321.932495,320.455017 310.402954,326.267120 
	C313.688751,329.948547 317.939026,331.151184 321.510254,333.090027 
	C340.762573,343.542389 360.255127,353.551697 379.646362,363.748932 
	C395.805054,372.246246 411.993317,380.689850 428.063812,389.351410 
	C439.150940,395.327118 450.727051,400.444519 461.267517,407.377136 
	C473.564911,415.465332 479.105469,427.292633 478.228119,441.828583 
	C477.388611,455.737610 470.196106,466.045593 457.790131,471.975861 
	C447.166534,477.054108 436.207550,476.460236 425.640747,470.824280 
	C404.693390,459.651703 383.685974,448.591644 362.730560,437.434113 
	C341.029846,425.879822 319.365936,414.256439 297.674469,402.684753 
	C293.711975,400.570862 289.732544,398.481567 285.691986,396.523102 
	C281.457520,394.470642 278.909119,391.440430 278.635437,386.535187 
	C278.355164,381.511505 281.500275,378.788696 285.206665,376.793060 
	C294.875610,371.587189 304.716217,366.700378 314.482361,361.674652 
	C316.980103,360.389313 319.455505,359.060577 322.182251,357.624878 
	C317.316681,352.253357 310.697723,350.599426 305.133362,347.255737 
	C298.451599,343.240631 291.366852,339.902893 284.561005,336.085815 
	C276.645569,331.646301 276.129211,322.317261 283.973785,317.595490 
	C292.929779,312.204773 302.356873,307.579468 311.682922,302.824829 
	C325.447296,295.807495 339.284271,288.931366 353.131561,282.078369 
	C357.369965,279.980774 361.464508,276.965363 366.687653,279.431580 
	C372.841461,282.337189 374.762451,288.297272 371.150360,294.786377 
	C368.621674,299.329193 366.836670,303.948212 365.712708,309.105988 
	C364.319916,315.497650 365.610809,320.684906 370.262177,324.750885 
	C375.533264,329.358643 381.412781,328.559753 387.376831,325.536560 
	C420.425598,308.784119 453.969635,292.936493 486.385651,275.042816 
	C499.714264,267.685425 509.246429,272.376892 519.984680,278.234131 
	C533.652344,285.689178 547.271057,293.242645 561.085510,300.417480 
	C578.169128,309.290314 595.343079,317.975647 612.184082,327.320679 
	C624.942627,334.400360 638.059448,340.833221 650.987732,347.609497 
	C653.618652,348.988464 656.491882,350.150757 658.423401,352.500305 
	C663.831177,359.078522 659.914856,366.206543 654.873413,368.875671 
	C644.886536,374.163086 634.727905,379.125671 624.651428,384.244476 
	C617.850708,387.699249 611.068970,391.191528 603.737610,394.944061 
	C607.639832,399.124146 612.720215,400.536194 617.028870,402.960541 
	C628.318787,409.312836 639.962708,415.033203 651.400574,421.127197 
	C654.694702,422.882263 657.707153,425.229736 657.723083,429.443298 
	C657.740112,433.951752 656.506042,437.712982 651.858765,439.998260 
	C640.392822,445.636566 629.098938,451.624847 617.742004,457.484253 
	C617.458557,457.630524 617.246460,457.915009 616.570435,458.521118 
	C626.993042,464.139191 637.256348,469.642975 647.487915,475.205170 
	C650.261719,476.713104 653.145325,478.132477 655.620361,480.053925 
	C661.490723,484.611206 660.759216,493.787262 654.163025,497.177887 
	C630.557434,509.311798 606.854614,521.256470 583.213623,533.321533 
	C565.182251,542.523804 547.184509,551.791626 529.179871,561.045959 
	C516.654114,567.484131 504.244965,574.159363 491.596130,580.345154 
	C477.613312,587.183228 459.134430,584.644165 448.035400,570.907349 
M613.736389,495.171661 
	C618.105225,492.893921 622.473999,490.616150 627.580994,487.953522 
	C617.055786,481.936859 607.242554,476.477264 597.042847,471.682892 
	C594.497620,470.486542 592.484985,470.338287 590.031799,471.595337 
	C580.291016,476.586945 570.463318,481.408966 560.718018,486.391968 
	C548.188477,492.798615 535.748779,499.381622 523.195251,505.740448 
	C505.008270,514.952881 486.716766,523.959290 468.546509,533.204285 
	C461.116302,536.984863 457.978943,547.024475 461.458099,554.763062 
	C464.539124,561.616028 473.156982,564.898804 480.934296,562.367615 
	C484.787964,561.113403 488.087952,558.845093 491.649841,557.062256 
	C508.729492,548.513367 525.808105,539.961609 542.839966,531.318176 
	C566.272400,519.426453 589.662537,507.451385 613.736389,495.171661 
M390.217712,392.426270 
	C376.892517,385.314148 363.517395,378.292908 350.279968,371.021057 
	C347.262085,369.363220 344.762695,369.531677 341.880341,370.975525 
	C336.697876,373.571564 331.324066,375.798370 326.217560,378.529663 
	C321.388000,381.112885 316.226959,383.226166 311.631836,386.769226 
	C319.653381,392.183105 327.854034,395.799927 335.733887,400.001923 
	C368.222595,417.326721 400.705597,434.662354 433.233704,451.912964 
	C445.059845,458.184723 455.226013,453.972748 458.404938,441.700104 
	C460.134216,435.023987 455.458832,426.582367 447.384979,422.330688 
	C428.574951,412.425446 409.705261,402.633453 390.217712,392.426270 
z"/>
<path fill="#000000" opacity="1.000000" stroke="none" 
	d="
M343.584534,539.605225 
	C326.586090,530.436157 309.655884,521.891785 293.310028,512.346680 
	C280.052643,504.605042 274.884064,487.805084 277.881866,472.881714 
	C281.637573,454.185425 300.315369,441.394928 320.500977,443.740356 
	C325.016113,444.264984 329.162262,446.167603 333.117737,448.248291 
	C361.930450,463.404755 390.683044,478.675598 419.466248,493.888275 
	C422.551849,495.519104 425.736206,496.962402 428.832397,498.574066 
	C434.551025,501.550690 436.915192,507.436279 434.456146,512.415039 
	C431.464294,518.472534 426.338257,520.378357 419.858887,517.031860 
	C401.840332,507.725555 383.976044,498.120636 366.042877,488.648712 
	C350.768921,480.581390 335.547180,472.411560 320.179932,464.525665 
	C310.968750,459.798798 296.554779,468.802612 296.981079,479.649414 
	C297.297272,487.695251 299.604614,493.205719 306.886536,496.976929 
	C326.510712,507.140045 345.986298,517.590942 365.489105,527.987183 
	C376.176788,533.684387 386.848114,539.416077 397.429138,545.307617 
	C401.662750,547.664856 404.240997,551.335632 403.209625,556.450684 
	C402.357239,560.677917 399.654846,563.350464 395.419434,564.657837 
	C392.672363,565.505859 390.646057,564.437195 388.393494,563.241333 
	C373.588043,555.381653 358.739655,547.602722 343.584534,539.605225 
z"/>
<path fill="#000000" opacity="1.000000" stroke="none" 
	d="
M337.628937,689.015503 
	C333.394958,671.265503 344.950134,651.778442 362.006958,646.023926 
	C381.009735,639.612915 399.088745,651.270508 405.389404,664.279480 
	C411.686340,677.280823 411.452911,690.896301 403.241486,703.583374 
	C402.348816,704.962524 401.133911,706.158875 400.882874,707.880615 
	C402.108337,709.986450 403.720001,709.269714 405.157227,708.393799 
	C407.936401,706.700012 410.027863,707.674805 411.477997,710.103577 
	C413.011261,712.671753 414.402557,715.286560 411.715240,718.249023 
	C407.531860,722.860718 399.251984,724.120667 393.000549,719.785461 
	C388.739197,716.830261 385.114166,717.299194 380.538086,718.380371 
	C365.753906,721.873474 348.643097,715.886963 340.936462,699.854675 
	C339.352783,696.560120 338.195709,693.092163 337.628937,689.015503 
M372.466461,695.539917 
	C377.083649,694.016663 381.401184,695.391052 385.420349,697.382812 
	C388.239471,698.779846 389.600861,697.879517 391.081604,695.616638 
	C394.444824,690.476929 394.997894,684.784973 394.622131,678.901062 
	C393.747345,665.203186 378.544189,654.816833 366.447540,659.611938 
	C350.134766,666.078125 346.065308,687.494385 358.761597,699.817139 
	C360.922760,701.914673 362.923401,702.541199 365.053986,699.995789 
	C366.837860,697.864624 369.235687,696.800659 372.466461,695.539917 
z"/>
<path fill="#000000" opacity="1.000000" stroke="none" 
	d="
M453.023865,718.387451 
	C438.871338,715.082153 431.332123,706.498535 429.623779,692.524536 
	C428.124146,680.257996 428.362122,668.000427 429.341705,655.725769 
	C429.407654,654.899048 429.466400,654.061096 429.408295,653.236816 
	C428.899719,646.020813 429.225861,645.667664 436.548798,645.692322 
	C442.788605,645.713318 443.321228,646.213135 443.338470,652.582214 
	C443.370911,664.567139 443.209808,676.554382 443.396088,688.536560 
	C443.585266,700.702148 454.230743,708.216980 465.704742,704.530090 
	C472.315552,702.405823 475.605225,697.785034 475.655243,690.146301 
	C475.734802,677.995361 475.661163,665.843506 475.701050,653.692200 
	C475.724854,646.440857 481.370361,642.927795 488.113617,645.887634 
	C489.477722,646.486450 490.273163,647.500854 490.246918,648.960205 
	C489.972473,664.234802 491.306915,679.535706 489.574371,694.785339 
	C487.463440,713.365295 467.622925,722.535767 453.023865,718.387451 
z"/>
<path fill="#000000" opacity="1.000000" stroke="none" 
	d="
M548.954529,705.658630 
	C550.277405,705.659241 551.109558,705.658813 551.941772,705.660583 
	C560.275818,705.678833 561.343445,706.966980 560.308044,715.248962 
	C560.010193,717.631409 558.704773,718.291382 556.609314,718.290710 
	C543.960205,718.286804 531.311096,718.291321 518.661987,718.312012 
	C515.044739,718.317993 513.654602,716.375427 513.657349,712.958252 
	C513.673828,691.988464 513.683594,671.018677 513.618652,650.049072 
	C513.608582,646.792480 515.090698,645.658020 518.180786,645.675476 
	C530.603699,645.745728 543.027344,645.743530 555.450439,645.701355 
	C559.467163,645.687744 560.726440,647.697632 560.193604,651.420471 
	C559.068054,659.284729 558.222717,659.816650 550.159912,659.535461 
	C542.877380,659.281494 535.578918,659.481873 528.029358,659.481873 
	C527.818420,663.541016 528.374512,667.312195 527.547058,671.045288 
	C526.902588,673.953186 528.709595,674.735718 531.358032,674.697510 
	C537.847656,674.603882 544.340637,674.610352 550.830505,674.700989 
	C556.107361,674.774658 556.595154,675.992615 556.398499,683.784729 
	C556.281250,688.427307 553.622559,688.406128 550.385803,687.890808 
	C544.572571,686.965515 538.774109,688.038879 532.967773,687.961670 
	C531.833557,687.946594 530.079834,687.912109 529.656677,688.564270 
	C526.819885,692.936584 528.518372,697.878540 528.547119,702.546265 
	C528.565186,705.485229 531.749573,705.510620 533.985229,705.589478 
	C538.806274,705.759338 543.637085,705.652283 548.954529,705.658630 
z"/>
<path fill="#000000" opacity="1.000000" stroke="none" 
	d="
M770.621216,718.288086 
	C757.837646,718.339050 745.514648,718.232788 733.196350,718.425171 
	C728.752563,718.494629 726.943115,716.198730 727.162659,712.386475 
	C728.273987,693.092651 727.282043,673.788757 727.662537,654.494934 
	C727.842529,645.366333 726.109863,645.727905 736.601074,645.680908 
	C746.734680,645.635559 756.868774,645.642029 767.002441,645.687256 
	C772.981506,645.713867 773.309265,647.072205 772.923767,652.918518 
	C772.516052,659.101013 769.394775,659.635681 764.531860,659.428101 
	C758.215881,659.158569 751.878296,659.439148 745.553101,659.319824 
	C742.664551,659.265320 741.263794,660.170837 741.316223,663.298889 
	C741.545532,676.972290 739.777771,674.424377 752.130859,674.658508 
	C756.458679,674.740540 760.789246,674.720398 765.118164,674.688232 
	C768.041138,674.666565 769.174805,676.075928 769.370544,678.959961 
	C769.924133,687.113892 769.705811,687.554871 761.374451,687.844910 
	C756.388062,688.018555 751.388489,687.853149 746.395569,687.786926 
	C743.036865,687.742432 741.302673,688.813110 741.261841,692.691040 
	C741.139709,704.290466 741.003235,704.041138 752.524231,704.788635 
	C757.815918,705.132019 763.084106,705.740723 768.403503,705.680481 
	C770.521423,705.656616 773.380737,705.310669 773.532227,708.248474 
	C773.709412,711.688232 776.077332,715.976135 770.621216,718.288086 
z"/>
<path fill="#000000" opacity="1.000000" stroke="none" 
	d="
M200.924652,659.367920 
	C194.106750,659.365906 187.778931,659.453125 181.455902,659.317261 
	C178.467529,659.253052 177.413651,660.402405 177.269150,663.391418 
	C176.754868,674.030762 176.656067,674.109131 187.221252,674.678528 
	C191.522232,674.910339 195.849640,674.601318 200.160919,674.706665 
	C205.045593,674.825928 205.403381,675.856567 205.423096,683.104309 
	C205.434860,687.434875 203.173553,688.040894 199.737411,687.909058 
	C194.260696,687.698975 188.778305,687.641602 183.299911,687.469116 
	C180.184845,687.371033 177.490967,687.681152 177.912613,691.872009 
	C177.927307,692.018005 177.766953,692.173340 177.736145,692.333496 
	C175.583969,703.522461 176.540253,704.706970 187.618546,704.669861 
	C193.111969,704.651489 198.607742,704.766785 204.098465,704.643921 
	C210.249771,704.506287 209.159760,708.869568 209.375839,712.620605 
	C209.593506,716.399170 208.710037,718.488831 204.209396,718.396057 
	C192.561890,718.155884 180.903046,718.195374 169.254410,718.418701 
	C164.846725,718.503174 163.502655,716.825745 163.527527,712.556458 
	C163.645782,692.267578 163.588364,671.976807 163.428772,651.687988 
	C163.393890,647.251953 164.850983,645.229248 169.534485,645.629089 
	C180.109375,646.531860 190.704056,646.486816 201.290649,645.672791 
	C205.516846,645.347839 208.777161,645.631104 208.478363,651.504456 
	C208.087189,659.193848 208.426849,659.211121 200.924652,659.367920 
z"/>
<path fill="#000000" opacity="1.000000" stroke="none" 
	d="
M652.281738,659.284546 
	C646.245667,657.128418 649.058228,652.473694 649.002747,648.942017 
	C648.955994,645.971619 651.808228,645.700378 654.264771,645.752075 
	C669.197815,646.066589 684.145081,645.074219 699.068848,646.237915 
	C699.397949,646.263611 699.725830,646.357605 700.052856,646.350830 
	C711.434387,646.115295 711.718262,646.465515 709.810791,659.351196 
	C704.194702,659.351196 698.428406,659.567261 692.687500,659.278687 
	C688.539978,659.070312 687.131409,660.519165 687.272156,664.678589 
	C687.542297,672.659973 687.090515,680.667786 687.418640,688.644897 
	C687.775269,697.316833 685.856018,705.854370 686.323425,714.505493 
	C686.471130,717.238892 685.185608,718.236877 682.459229,718.400024 
	C673.259949,718.950928 671.504150,717.537659 671.683960,708.246094 
	C671.970154,693.456482 670.880127,678.653625 672.240295,663.867798 
	C672.486389,661.192383 671.156982,659.194946 667.731812,659.330627 
	C662.746582,659.528015 657.746094,659.342102 652.281738,659.284546 
z"/>
<path fill="#000000" opacity="1.000000" stroke="none" 
	d="
M282.688660,645.892456 
	C285.068054,648.004150 286.266296,656.547485 284.883392,658.389099 
	C283.920563,659.671265 282.503815,659.346497 281.207825,659.351501 
	C276.549835,659.369446 271.875488,659.593628 267.238434,659.280090 
	C263.136932,659.002747 262.101013,660.769775 262.131226,664.517700 
	C262.254608,679.821655 262.199677,695.127380 262.162079,710.432312 
	C262.144104,717.753662 257.166748,720.802063 250.227371,717.905579 
	C247.380722,716.717468 247.725754,714.361084 247.723999,712.027222 
	C247.712296,696.431641 247.518982,680.833740 247.748199,665.241943 
	C247.815216,660.682983 246.540680,658.916199 241.863205,659.288574 
	C237.400314,659.643860 232.880219,659.210754 228.396072,659.391663 
	C224.970123,659.529907 223.460403,658.187500 223.627884,654.758972 
	C223.724976,652.770996 223.477646,650.765381 223.588211,648.779053 
	C223.693695,646.883911 224.533859,645.868347 226.792694,645.992126 
	C245.270645,647.005127 263.745270,645.287659 282.688660,645.892456 
z"/>
<path fill="#000000" opacity="1.000000" stroke="none" 
	d="
M615.999512,645.674194 
	C621.493286,645.685913 626.487793,645.746460 631.480896,645.689758 
	C634.193726,645.658936 635.218323,646.815430 635.385803,649.562378 
	C636.046387,660.397766 636.772217,659.372131 626.476013,659.358521 
	C612.251099,659.339722 612.242859,659.347900 612.227905,673.741150 
	C612.214600,686.559082 612.268188,699.377319 612.199707,712.194885 
	C612.169373,717.882812 611.489685,718.203857 605.197571,718.407349 
	C600.687866,718.553345 598.502930,717.301331 598.582642,712.247620 
	C598.824341,696.936462 598.671570,681.618958 598.660828,666.303955 
	C598.656006,659.365051 598.643494,659.354492 591.935974,659.360046 
	C587.109741,659.364014 582.283020,659.366150 577.457458,659.437195 
	C574.967407,659.473816 573.979126,658.827515 574.300903,655.912354 
	C575.427246,645.708496 575.287415,645.692505 585.535400,645.687378 
	C595.523499,645.682312 605.511536,645.678406 615.999512,645.674194 
z"/>
<path fill="#000000" opacity="1.000000" stroke="none" 
	d="
M316.344604,688.000122 
	C316.335419,696.816528 316.309540,705.133057 316.325989,713.449402 
	C316.330994,715.986389 315.993103,718.497742 312.753296,718.173218 
	C309.346161,717.831970 304.691223,720.425049 303.131256,714.832764 
	C302.737457,713.421265 302.689789,711.879639 302.687469,710.397522 
	C302.656708,690.937073 302.647186,671.476562 302.680359,652.016174 
	C302.684174,649.774414 302.007111,646.779663 304.973450,646.090393 
	C308.317169,645.313416 311.978180,644.906067 315.224823,646.473389 
	C316.890045,647.277344 316.313110,649.462280 316.318176,651.074097 
	C316.356232,663.216003 316.342041,675.358032 316.344604,688.000122 
z"/>
</svg>