<svg version="1.1" id="Layer_1" xmlns="http://www.w3.org/2000/svg" xmlns:xlink="http://www.w3.org/1999/xlink" x="0px" y="0px"
	 width="100%" viewBox="0 0 500 500" enable-background="new 0 0 500 500" xml:space="preserve">
<path fill="#000000" opacity="1.000000" stroke="none" 
	d="
M272.000000,501.000000 
	C181.333359,501.000000 91.166710,501.000000 1.000048,501.000000 
	C1.000032,334.333405 1.000032,167.666794 1.000016,1.000138 
	C167.666565,1.000092 334.333130,1.000092 500.999756,1.000046 
	C500.999847,167.666519 500.999847,334.333038 500.999939,500.999786 
	C424.833344,501.000000 348.666656,501.000000 272.000000,501.000000 
M471.403503,249.999847 
	C477.626587,249.722504 484.378906,250.778839 488.236206,244.539856 
	C488.101349,243.850143 487.966522,243.160446 487.831665,242.470734 
	C476.683594,242.470734 465.535522,242.470734 454.317932,242.470734 
	C454.317932,236.399750 454.317932,231.348312 454.317932,226.207703 
	C463.479034,225.320679 472.918854,227.780457 481.791626,221.686279 
	C479.727325,220.557083 478.405853,219.321625 476.940704,219.117432 
	C468.539703,217.946701 460.119415,216.446289 451.675537,216.229080 
	C446.681396,216.100616 441.203308,217.412460 438.932007,223.810486 
	C441.634277,224.855148 444.252289,225.867249 446.270569,226.647476 
	C446.270569,232.431702 446.270569,238.005234 446.270569,242.313614 
	C443.065979,244.533218 440.836304,246.077530 437.336029,248.501923 
	C440.914124,249.491943 442.816895,250.018417 444.664093,250.529526 
	C445.111694,256.467682 445.582672,262.367981 445.993439,268.272430 
	C446.334015,273.168762 451.447693,278.224213 455.247955,276.810059 
	C465.278503,273.077454 475.310699,269.275208 485.039154,264.836395 
	C489.790039,262.668701 493.801636,258.961121 496.760895,252.965729 
	C481.972015,257.756897 468.345032,262.171631 454.360962,266.702057 
	C454.013062,260.742920 453.717926,255.687225 453.385895,249.999847 
	C458.904175,249.999847 464.666412,249.999847 471.403503,249.999847 
M34.982311,261.517242 
	C30.300869,262.854065 25.582306,264.075989 20.952284,265.571960 
	C18.292278,266.431427 17.087500,265.547485 17.031462,262.972351 
	C16.938910,258.719299 17.006325,254.462753 17.006325,249.999222 
	C24.701891,249.999222 31.759052,250.603577 38.649048,249.790848 
	C43.395283,249.230972 50.014839,250.973129 52.269909,242.495636 
	C40.319157,242.495636 28.849096,242.495636 17.324059,242.495636 
	C17.324059,236.396912 17.324059,231.341400 17.324059,226.162781 
	C26.846849,225.459198 36.559860,227.661179 45.089939,221.383453 
	C42.163872,219.839661 39.205063,218.507950 36.122452,218.090561 
	C30.588640,217.341293 24.974745,217.203995 19.404751,216.696426 
	C11.879651,216.010666 6.716455,216.386795 2.916578,223.481506 
	C5.140114,224.588928 7.356966,225.693008 9.856314,226.937790 
	C9.856314,232.141663 9.856314,237.779800 9.856314,243.391022 
	C4.906158,244.606766 3.804960,245.678314 3.305003,249.845718 
	C5.085193,249.955750 6.854817,250.065140 9.000101,250.197739 
	C9.000101,253.427124 8.867745,256.405334 9.034820,259.366669 
	C9.227887,262.788696 9.326705,266.280396 10.108508,269.590210 
	C11.374800,274.951080 14.817015,278.049683 18.176001,276.854523 
	C27.797688,273.430939 37.438194,269.986115 46.788944,265.903015 
	C52.421230,263.443604 57.397953,259.648651 60.476444,252.745529 
	C51.550060,255.745621 43.612923,258.413239 34.982311,261.517242 
M277.730164,250.002930 
	C284.060577,250.001678 290.485229,250.663986 296.690735,249.782883 
	C301.397919,249.114487 308.104828,251.049530 310.238342,242.465561 
	C298.306305,242.465561 286.832733,242.465561 275.331726,242.465561 
	C275.331726,236.378387 275.331726,231.323914 275.331726,226.159927 
	C284.860657,225.466309 294.564697,227.648026 303.090332,221.389679 
	C300.160400,219.836807 297.199493,218.496246 294.116150,218.093750 
	C288.739197,217.391907 283.187286,217.787888 277.890411,216.774170 
	C270.754242,215.408432 265.141510,216.799988 260.680237,223.360565 
	C263.137726,224.585236 265.351898,225.688644 267.854187,226.935638 
	C267.854187,232.129242 267.854187,237.765305 267.854187,243.610764 
	C264.338867,244.183167 261.124420,245.168869 261.112579,249.826553 
	C263.065735,249.949844 264.838379,250.061737 267.000061,250.198196 
	C267.000061,253.404419 266.867889,256.380249 267.034698,259.339203 
	C267.227539,262.759827 267.332397,266.247650 268.105499,269.559204 
	C269.350464,274.891968 272.811279,278.039795 276.139343,276.856476 
	C285.757629,273.436523 295.387939,269.980774 304.743408,265.917084 
	C310.403625,263.458496 315.377441,259.657532 318.406677,252.898621 
	C306.991547,256.639740 296.455170,260.194061 285.853638,263.541962 
	C272.336060,267.810669 275.234283,266.585388 275.086090,255.370224 
	C275.062622,253.594437 276.182343,251.803528 277.730164,250.002930 
M197.478088,275.988342 
	C199.614365,277.464539 201.653000,279.127350 203.936554,280.322052 
	C204.808975,280.778473 206.242142,280.163055 207.419754,280.036072 
	C207.281082,278.867706 207.542633,277.397736 206.930847,276.585907 
	C204.859039,273.836517 202.768051,270.967133 200.139084,268.807404 
	C197.094421,266.306244 196.767960,263.441193 196.936066,259.889954 
	C197.204041,254.228683 197.697464,248.436218 196.835831,242.895111 
	C195.379700,233.530838 190.767822,225.363068 182.129150,224.585205 
	C182.621735,222.008453 182.782883,219.630966 178.962494,220.000534 
	C171.861450,220.687469 166.027359,223.758575 162.106552,229.718842 
	C155.172668,240.259460 153.253174,252.183838 154.225372,264.441803 
	C154.552216,268.562927 156.637604,272.900116 158.986969,276.427399 
	C163.207199,282.763580 171.007187,283.046295 176.147476,277.765320 
	C176.625259,277.274475 177.575134,277.233490 178.313080,277.007294 
	C180.458755,276.349640 183.115814,276.286621 184.658844,274.942078 
	C188.918900,271.230042 192.659332,271.575806 196.550476,275.190674 
	C196.671173,275.302795 196.822937,275.381470 197.478088,275.988342 
M229.602036,277.089050 
	C238.881592,274.009521 246.502686,269.271362 251.169327,259.940979 
	C256.291443,249.699936 254.654312,239.032852 254.887558,228.431259 
	C254.905945,227.594650 253.815582,226.733643 252.920242,225.410797 
	C252.123596,227.384064 251.260910,228.658463 251.139877,229.999817 
	C250.886383,232.809250 251.074478,235.655396 250.991714,238.483856 
	C250.517487,254.689560 242.867676,266.628357 224.663345,268.464111 
	C221.986465,268.734070 216.699844,269.770233 216.159744,264.685516 
	C215.697357,260.332520 216.067841,255.736664 216.945801,251.426636 
	C219.007217,241.306870 221.592804,231.293884 223.991821,221.129425 
	C220.619263,220.279572 217.826355,221.790970 216.066071,225.637482 
	C210.480942,237.841751 206.498856,250.423447 208.070984,264.049255 
	C208.833008,270.653595 210.505524,277.402618 218.341431,278.866547 
	C221.678238,279.489929 225.399796,278.053772 229.602036,277.089050 
M388.520111,224.987396 
	C383.232574,224.798615 380.985321,228.944687 378.387115,232.374756 
	C377.821869,233.120987 378.168884,235.021133 378.750397,236.001602 
	C379.106384,236.601959 380.773743,236.786011 381.738861,236.592300 
	C384.115967,236.115189 386.396973,235.165817 388.771454,234.667847 
	C395.350769,233.288040 401.958038,232.041702 409.358154,230.584274 
	C407.268127,248.414352 407.189911,265.133057 411.916046,281.454346 
	C412.412476,281.431030 412.908875,281.407684 413.405273,281.384338 
	C413.405273,264.299347 413.405273,247.214325 413.405273,230.145248 
	C417.945129,230.145248 422.155334,229.716461 426.238800,230.252777 
	C431.449524,230.937164 434.900543,229.576279 435.835663,225.310165 
	C420.372162,220.698975 404.892181,220.584595 388.520111,224.987396 
M103.307861,229.999969 
	C105.058617,230.297028 106.816696,230.556854 108.558578,230.899109 
	C111.985123,231.572388 116.075546,228.896683 116.799271,225.303253 
	C99.808525,220.054520 82.854919,220.797195 66.114296,226.136795 
	C63.408287,226.999893 61.410557,230.258804 59.384052,232.662064 
	C59.256165,232.813721 61.611885,236.085358 63.024494,236.268600 
	C65.114799,236.539719 67.376022,235.249435 69.598694,234.789185 
	C76.519264,233.356125 83.455925,232.000793 90.522568,230.588104 
	C88.968338,248.265686 88.156990,264.928619 93.076363,281.223694 
	C93.506683,281.211456 93.937004,281.199249 94.367325,281.187042 
	C94.367325,264.260620 94.367325,247.334213 94.367325,229.999954 
	C97.107857,229.999954 99.740623,229.999954 103.307861,229.999969 
M353.459045,222.000015 
	C344.522736,223.003464 335.597717,224.127823 326.645599,224.961609 
	C321.856262,225.407669 320.219849,229.515213 317.446777,232.278351 
	C317.004456,232.719070 317.348724,234.623718 317.952576,235.261368 
	C318.637573,235.984665 320.111633,236.500244 321.089722,236.311920 
	C325.068604,235.545914 328.963379,234.349121 332.937103,233.548950 
	C338.107544,232.507782 343.323486,231.692490 348.468689,230.789001 
	C347.085144,248.322937 346.045837,264.967834 351.133331,281.218048 
	C351.560638,281.204498 351.987946,281.190948 352.415253,281.177399 
	C352.415253,264.228729 352.415253,247.280075 352.415253,230.766068 
	C359.689911,227.222641 369.059296,235.110336 375.051941,224.634384 
	C368.179901,223.756256 361.307892,222.878128 353.459045,222.000015 
M129.004593,215.073074 
	C129.337219,226.147903 129.266830,237.254745 130.143631,248.286331 
	C130.731918,255.688019 132.465988,263.026764 134.085754,270.305023 
	C134.771362,273.385712 137.015198,275.583527 141.389526,276.107666 
	C140.844940,267.319641 140.556564,258.953430 139.753677,250.636948 
	C138.717850,239.907730 136.870148,229.243454 136.194199,218.499481 
	C135.918060,214.110641 134.746307,211.854904 130.430176,211.163788 
	C129.972748,212.156219 129.501740,213.178131 129.004593,215.073074 
z"/>
<path fill="#1266FF" opacity="1.000000" stroke="none" 
	d="
M470.916077,249.999847 
	C464.666412,249.999847 458.904175,249.999847 453.385895,249.999847 
	C453.717926,255.687225 454.013062,260.742920 454.360962,266.702057 
	C468.345032,262.171631 481.972015,257.756897 496.760895,252.965729 
	C493.801636,258.961121 489.790039,262.668701 485.039154,264.836395 
	C475.310699,269.275208 465.278503,273.077454 455.247955,276.810059 
	C451.447693,278.224213 446.334015,273.168762 445.993439,268.272430 
	C445.582672,262.367981 445.111694,256.467682 444.664093,250.529526 
	C442.816895,250.018417 440.914124,249.491943 437.336029,248.501923 
	C440.836304,246.077530 443.065979,244.533218 446.270569,242.313614 
	C446.270569,238.005234 446.270569,232.431702 446.270569,226.647476 
	C444.252289,225.867249 441.634277,224.855148 438.932007,223.810486 
	C441.203308,217.412460 446.681396,216.100616 451.675537,216.229080 
	C460.119415,216.446289 468.539703,217.946701 476.940704,219.117432 
	C478.405853,219.321625 479.727325,220.557083 481.791626,221.686279 
	C472.918854,227.780457 463.479034,225.320679 454.317932,226.207703 
	C454.317932,231.348312 454.317932,236.399750 454.317932,242.470734 
	C465.535522,242.470734 476.683594,242.470734 487.831665,242.470734 
	C487.966522,243.160446 488.101349,243.850143 488.236206,244.539856 
	C484.378906,250.778839 477.626587,249.722504 470.916077,249.999847 
z"/>
<path fill="#1266FF" opacity="1.000000" stroke="none" 
	d="
M35.329048,261.299072 
	C43.612923,258.413239 51.550060,255.745621 60.476444,252.745529 
	C57.397953,259.648651 52.421230,263.443604 46.788944,265.903015 
	C37.438194,269.986115 27.797688,273.430939 18.176001,276.854523 
	C14.817015,278.049683 11.374800,274.951080 10.108508,269.590210 
	C9.326705,266.280396 9.227887,262.788696 9.034820,259.366669 
	C8.867745,256.405334 9.000101,253.427124 9.000101,250.197739 
	C6.854817,250.065140 5.085193,249.955750 3.305003,249.845718 
	C3.804960,245.678314 4.906158,244.606766 9.856314,243.391022 
	C9.856314,237.779800 9.856314,232.141663 9.856314,226.937790 
	C7.356966,225.693008 5.140114,224.588928 2.916578,223.481506 
	C6.716455,216.386795 11.879651,216.010666 19.404751,216.696426 
	C24.974745,217.203995 30.588640,217.341293 36.122452,218.090561 
	C39.205063,218.507950 42.163872,219.839661 45.089939,221.383453 
	C36.559860,227.661179 26.846849,225.459198 17.324059,226.162781 
	C17.324059,231.341400 17.324059,236.396912 17.324059,242.495636 
	C28.849096,242.495636 40.319157,242.495636 52.269909,242.495636 
	C50.014839,250.973129 43.395283,249.230972 38.649048,249.790848 
	C31.759052,250.603577 24.701891,249.999222 17.006325,249.999222 
	C17.006325,254.462753 16.938910,258.719299 17.031462,262.972351 
	C17.087500,265.547485 18.292278,266.431427 20.952284,265.571960 
	C25.582306,264.075989 30.300869,262.854065 35.329048,261.299072 
z"/>
<path fill="#1266FF" opacity="1.000000" stroke="none" 
	d="
M277.251831,250.011261 
	C276.182343,251.803528 275.062622,253.594437 275.086090,255.370224 
	C275.234283,266.585388 272.336060,267.810669 285.853638,263.541962 
	C296.455170,260.194061 306.991547,256.639740 318.406677,252.898621 
	C315.377441,259.657532 310.403625,263.458496 304.743408,265.917084 
	C295.387939,269.980774 285.757629,273.436523 276.139343,276.856476 
	C272.811279,278.039795 269.350464,274.891968 268.105499,269.559204 
	C267.332397,266.247650 267.227539,262.759827 267.034698,259.339203 
	C266.867889,256.380249 267.000061,253.404419 267.000061,250.198196 
	C264.838379,250.061737 263.065735,249.949844 261.112579,249.826553 
	C261.124420,245.168869 264.338867,244.183167 267.854187,243.610764 
	C267.854187,237.765305 267.854187,232.129242 267.854187,226.935638 
	C265.351898,225.688644 263.137726,224.585236 260.680237,223.360565 
	C265.141510,216.799988 270.754242,215.408432 277.890411,216.774170 
	C283.187286,217.787888 288.739197,217.391907 294.116150,218.093750 
	C297.199493,218.496246 300.160400,219.836807 303.090332,221.389679 
	C294.564697,227.648026 284.860657,225.466309 275.331726,226.159927 
	C275.331726,231.323914 275.331726,236.378387 275.331726,242.465561 
	C286.832733,242.465561 298.306305,242.465561 310.238342,242.465561 
	C308.104828,251.049530 301.397919,249.114487 296.690735,249.782883 
	C290.485229,250.663986 284.060577,250.001678 277.251831,250.011261 
z"/>
<path fill="#1266FF" opacity="1.000000" stroke="none" 
	d="
M197.219147,275.732056 
	C196.822937,275.381470 196.671173,275.302795 196.550476,275.190674 
	C192.659332,271.575806 188.918900,271.230042 184.658844,274.942078 
	C183.115814,276.286621 180.458755,276.349640 178.313080,277.007294 
	C177.575134,277.233490 176.625259,277.274475 176.147476,277.765320 
	C171.007187,283.046295 163.207199,282.763580 158.986969,276.427399 
	C156.637604,272.900116 154.552216,268.562927 154.225372,264.441803 
	C153.253174,252.183838 155.172668,240.259460 162.106552,229.718842 
	C166.027359,223.758575 171.861450,220.687469 178.962494,220.000534 
	C182.782883,219.630966 182.621735,222.008453 182.129150,224.585205 
	C190.767822,225.363068 195.379700,233.530838 196.835831,242.895111 
	C197.697464,248.436218 197.204041,254.228683 196.936066,259.889954 
	C196.767960,263.441193 197.094421,266.306244 200.139084,268.807404 
	C202.768051,270.967133 204.859039,273.836517 206.930847,276.585907 
	C207.542633,277.397736 207.281082,278.867706 207.419754,280.036072 
	C206.242142,280.163055 204.808975,280.778473 203.936554,280.322052 
	C201.653000,279.127350 199.614365,277.464539 197.219147,275.732056 
M172.960022,231.537933 
	C165.581589,237.429428 162.826477,245.767075 161.100388,254.526245 
	C160.488907,257.629242 159.775558,261.234741 160.754608,264.035492 
	C164.416580,274.511169 178.464111,276.770264 185.430923,268.520447 
	C180.620178,263.937500 173.610794,261.340424 171.972855,253.997223 
	C172.287033,253.519852 172.601212,253.042496 172.915405,252.565125 
	C179.188126,255.211639 185.460831,257.858154 191.999252,260.616791 
	C191.999252,258.168030 192.131912,255.692993 191.960388,253.239212 
	C191.802139,250.975403 191.391068,248.720306 190.963211,246.485916 
	C189.449219,238.579163 181.525604,231.617584 172.960022,231.537933 
z"/>
<path fill="#1266FF" opacity="1.000000" stroke="none" 
	d="
M229.274261,277.321289 
	C225.399796,278.053772 221.678238,279.489929 218.341431,278.866547 
	C210.505524,277.402618 208.833008,270.653595 208.070984,264.049255 
	C206.498856,250.423447 210.480942,237.841751 216.066071,225.637482 
	C217.826355,221.790970 220.619263,220.279572 223.991821,221.129425 
	C221.592804,231.293884 219.007217,241.306870 216.945801,251.426636 
	C216.067841,255.736664 215.697357,260.332520 216.159744,264.685516 
	C216.699844,269.770233 221.986465,268.734070 224.663345,268.464111 
	C242.867676,266.628357 250.517487,254.689560 250.991714,238.483856 
	C251.074478,235.655396 250.886383,232.809250 251.139877,229.999817 
	C251.260910,228.658463 252.123596,227.384064 252.920242,225.410797 
	C253.815582,226.733643 254.905945,227.594650 254.887558,228.431259 
	C254.654312,239.032852 256.291443,249.699936 251.169327,259.940979 
	C246.502686,269.271362 238.881592,274.009521 229.274261,277.321289 
z"/>
<path fill="#1266FF" opacity="1.000000" stroke="none" 
	d="
M388.937195,224.948318 
	C404.892181,220.584595 420.372162,220.698975 435.835663,225.310165 
	C434.900543,229.576279 431.449524,230.937164 426.238800,230.252777 
	C422.155334,229.716461 417.945129,230.145248 413.405273,230.145248 
	C413.405273,247.214325 413.405273,264.299347 413.405273,281.384338 
	C412.908875,281.407684 412.412476,281.431030 411.916046,281.454346 
	C407.189911,265.133057 407.268127,248.414352 409.358154,230.584274 
	C401.958038,232.041702 395.350769,233.288040 388.771454,234.667847 
	C386.396973,235.165817 384.115967,236.115189 381.738861,236.592300 
	C380.773743,236.786011 379.106384,236.601959 378.750397,236.001602 
	C378.168884,235.021133 377.821869,233.120987 378.387115,232.374756 
	C380.985321,228.944687 383.232574,224.798615 388.937195,224.948318 
z"/>
<path fill="#1266FF" opacity="1.000000" stroke="none" 
	d="
M102.840622,229.999969 
	C99.740623,229.999954 97.107857,229.999954 94.367325,229.999954 
	C94.367325,247.334213 94.367325,264.260620 94.367325,281.187042 
	C93.937004,281.199249 93.506683,281.211456 93.076363,281.223694 
	C88.156990,264.928619 88.968338,248.265686 90.522568,230.588104 
	C83.455925,232.000793 76.519264,233.356125 69.598694,234.789185 
	C67.376022,235.249435 65.114799,236.539719 63.024494,236.268600 
	C61.611885,236.085358 59.256165,232.813721 59.384052,232.662064 
	C61.410557,230.258804 63.408287,226.999893 66.114296,226.136795 
	C82.854919,220.797195 99.808525,220.054520 116.799271,225.303253 
	C116.075546,228.896683 111.985123,231.572388 108.558578,230.899109 
	C106.816696,230.556854 105.058617,230.297028 102.840622,229.999969 
z"/>
<path fill="#1266FF" opacity="1.000000" stroke="none" 
	d="
M353.947449,222.000000 
	C361.307892,222.878128 368.179901,223.756256 375.051941,224.634384 
	C369.059296,235.110336 359.689911,227.222641 352.415253,230.766068 
	C352.415253,247.280075 352.415253,264.228729 352.415253,281.177399 
	C351.987946,281.190948 351.560638,281.204498 351.133331,281.218048 
	C346.045837,264.967834 347.085144,248.322937 348.468689,230.789001 
	C343.323486,231.692490 338.107544,232.507782 332.937103,233.548950 
	C328.963379,234.349121 325.068604,235.545914 321.089722,236.311920 
	C320.111633,236.500244 318.637573,235.984665 317.952576,235.261368 
	C317.348724,234.623718 317.004456,232.719070 317.446777,232.278351 
	C320.219849,229.515213 321.856262,225.407669 326.645599,224.961609 
	C335.597717,224.127823 344.522736,223.003464 353.947449,222.000000 
z"/>
<path fill="#1266FF" opacity="1.000000" stroke="none" 
	d="
M129.017670,214.636566 
	C129.501740,213.178131 129.972748,212.156219 130.430176,211.163788 
	C134.746307,211.854904 135.918060,214.110641 136.194199,218.499481 
	C136.870148,229.243454 138.717850,239.907730 139.753677,250.636948 
	C140.556564,258.953430 140.844940,267.319641 141.389526,276.107666 
	C137.015198,275.583527 134.771362,273.385712 134.085754,270.305023 
	C132.465988,263.026764 130.731918,255.688019 130.143631,248.286331 
	C129.266830,237.254745 129.337219,226.147903 129.017670,214.636566 
z"/>
<path fill="#000000" opacity="1.000000" stroke="none" 
	d="
M173.205414,231.287048 
	C181.525604,231.617584 189.449219,238.579163 190.963211,246.485916 
	C191.391068,248.720306 191.802139,250.975403 191.960388,253.239212 
	C192.131912,255.692993 191.999252,258.168030 191.999252,260.616791 
	C185.460831,257.858154 179.188126,255.211639 172.915405,252.565125 
	C172.601212,253.042496 172.287033,253.519852 171.972855,253.997223 
	C173.610794,261.340424 180.620178,263.937500 185.430923,268.520447 
	C178.464111,276.770264 164.416580,274.511169 160.754608,264.035492 
	C159.775558,261.234741 160.488907,257.629242 161.100388,254.526245 
	C162.826477,245.767075 165.581589,237.429428 173.205414,231.287048 
z"/>
</svg>