<svg version="1.1" id="Layer_1" xmlns="http://www.w3.org/2000/svg" xmlns:xlink="http://www.w3.org/1999/xlink" x="0px" y="0px"
	 width="100%" viewBox="0 0 500 500" enable-background="new 0 0 500 500" xml:space="preserve">
<path fill="#000000" opacity="1.000000" stroke="none" 
	d="
M492.054932,501.000000 
	C328.047272,501.000000 164.548782,501.000000 1.025139,501.000000 
	C1.025139,334.351624 1.025139,167.703247 1.025139,1.027434 
	C167.646851,1.027434 334.293701,1.027434 500.970276,1.027434 
	C500.970276,167.645309 500.970276,334.290619 500.970276,501.000000 
	C498.188171,501.000000 495.376160,501.000000 492.054932,501.000000 
M249.999771,330.616089 
	C248.995850,326.732880 248.616135,322.535980 246.855530,319.033081 
	C243.399811,312.157654 236.642548,310.187164 231.771469,313.728363 
	C224.009125,319.371460 219.902100,339.336945 225.776794,347.463074 
	C228.232285,350.859650 233.150696,352.103302 236.446732,349.783325 
	C243.877487,344.553223 244.700623,344.545654 251.945419,349.396149 
	C252.813690,349.977417 253.831604,350.335175 255.906174,351.344238 
	C255.543106,349.122528 255.789398,347.307983 255.070068,346.759216 
	C249.844757,342.773071 249.385818,337.357941 249.999771,330.616089 
M144.699127,331.000305 
	C148.697266,330.998871 152.727951,331.295776 156.679184,330.864624 
	C158.532394,330.662354 160.232452,329.056519 162.001907,328.086761 
	C161.777832,327.437622 161.553772,326.788452 161.329697,326.139313 
	C154.648209,326.139313 147.966736,326.139313 141.355484,326.139313 
	C141.355484,322.324921 141.355484,319.268250 141.355484,316.580688 
	C147.118332,315.943268 152.491989,315.348907 159.167435,314.610535 
	C150.978226,308.279053 135.539062,308.816803 132.132645,314.376373 
	C140.010300,319.705017 135.785934,325.124207 131.480270,330.477509 
	C133.459045,330.890442 134.666702,331.142456 136.000015,331.420685 
	C136.000015,333.219330 135.999863,334.708557 136.000061,336.197815 
	C136.000290,337.863708 135.937714,339.532440 136.013016,341.194946 
	C136.246231,346.343506 138.544968,348.344513 143.298218,346.921539 
	C148.260452,345.435944 153.262024,343.792603 157.851379,341.445709 
	C161.278519,339.693146 164.077698,336.712585 167.156509,334.278870 
	C166.824631,333.817596 166.492737,333.356354 166.160858,332.895081 
	C157.891373,335.542511 149.621902,338.189911 141.007263,340.947845 
	C141.007263,338.034546 140.749466,335.665436 141.132416,333.404846 
	C141.288589,332.482880 142.834137,331.796295 144.699127,331.000305 
M310.382812,342.930481 
	C314.913666,340.391327 320.592407,339.232880 322.816742,332.681122 
	C313.850372,335.552185 305.601624,338.193512 297.207703,340.881287 
	C297.207703,337.376709 297.207703,334.432312 297.207703,331.000000 
	C301.182922,331.000000 304.966370,331.000336 308.749847,330.999939 
	C316.112518,330.999146 316.112518,330.998962 317.463928,326.124542 
	C310.628784,326.124542 303.955811,326.124542 297.351685,326.124542 
	C297.351685,322.325531 297.351685,319.272156 297.351685,316.575195 
	C303.117279,315.943451 308.499512,315.353668 315.145233,314.625488 
	C307.107056,308.308746 291.712067,308.776550 287.940887,314.583618 
	C294.771118,316.657349 291.155823,322.135498 291.915375,325.784424 
	C290.252045,327.272003 288.878754,328.500214 286.784821,330.372925 
	C289.361542,330.873047 290.583649,331.110260 292.003021,331.385773 
	C292.003021,334.932434 291.870483,338.251801 292.034576,341.556427 
	C292.271454,346.327637 294.637482,348.201660 299.147095,346.934692 
	C302.716949,345.931732 306.132812,344.380554 310.382812,342.930481 
M411.439636,316.000000 
	C414.872314,315.547241 418.304993,315.094513 421.737701,314.641785 
	C414.432770,308.367981 399.849243,308.882050 395.854248,314.533539 
	C397.218597,315.290161 398.536163,316.020844 399.913666,316.784760 
	C399.913666,319.918793 399.913666,323.069244 399.913666,325.829620 
	C398.307983,327.225128 396.918304,328.432892 394.977570,330.119598 
	C397.426941,330.853119 398.727722,331.242676 400.002625,331.624451 
	C400.002625,335.147552 399.880371,338.318054 400.031128,341.475494 
	C400.261200,346.293549 402.626373,348.280792 407.079651,346.923492 
	C412.181702,345.368439 417.298218,343.622711 422.053772,341.249207 
	C425.440643,339.558807 428.241364,336.693878 431.303680,334.353149 
	C430.981110,333.857666 430.658569,333.362152 430.335999,332.866638 
	C422.006531,335.515625 413.677032,338.164612 405.308350,340.826050 
	C405.308350,337.149780 405.308350,334.224213 405.308350,331.000000 
	C409.253448,331.000000 412.893677,331.000214 416.533905,330.999969 
	C423.881927,330.999481 423.881927,330.999359 425.679504,326.251801 
	C418.768890,326.251801 412.081268,326.251801 405.298553,326.251801 
	C405.298553,322.437500 405.298553,319.382172 405.298553,316.000000 
	C407.231812,316.000000 408.869568,316.000000 411.439636,316.000000 
M280.161133,331.379059 
	C277.269806,334.305939 274.796387,337.982239 271.345886,339.906464 
	C268.886261,341.278137 264.870697,340.988617 262.049805,340.005219 
	C260.982758,339.633240 260.985962,335.215759 261.114502,332.673340 
	C261.234924,330.290924 262.135620,327.941711 262.746521,325.591797 
	C263.814453,321.483978 264.923462,317.386871 266.015259,313.285248 
	C265.573181,312.971954 265.131104,312.658630 264.689026,312.345306 
	C263.250458,313.619659 261.167450,314.619019 260.485901,316.216370 
	C257.670258,322.815521 255.478928,329.499786 255.871658,337.002472 
	C256.405762,347.205963 260.026611,349.914917 269.651703,347.058594 
	C284.518341,342.646759 287.492981,325.314453 283.505096,315.576965 
	C283.117340,316.125854 282.478668,316.627960 282.398346,317.207458 
	C281.772705,321.721802 281.254486,326.251038 280.161133,331.379059 
M176.416977,314.895782 
	C169.159775,315.312500 166.126495,317.678528 166.500412,323.039764 
	C172.485077,321.895477 178.441208,320.756653 183.999969,319.693787 
	C183.999969,325.270203 183.760483,330.133331 184.067688,334.961700 
	C184.371643,339.738983 185.227417,344.481171 185.841156,349.238739 
	C186.337097,349.197662 186.833054,349.156586 187.328995,349.115509 
	C187.328995,339.214081 187.328995,329.312653 187.328995,319.445862 
	C191.954803,317.605957 197.645416,321.236267 202.111786,316.459717 
	C193.771576,312.820984 185.426346,313.967804 176.416977,314.895782 
M340.997742,342.475800 
	C341.364777,344.699036 341.731812,346.922272 342.098846,349.145508 
	C342.530518,349.102020 342.962189,349.058533 343.393860,349.015045 
	C343.393860,339.106079 343.393860,329.197113 343.393860,319.464325 
	C348.102905,317.602661 353.775635,321.423401 358.216980,316.079132 
	C347.062622,312.855560 336.401642,313.090057 325.911957,316.256805 
	C323.785797,316.898651 320.838043,319.262787 322.572052,323.023438 
	C328.713165,321.863892 334.672607,320.738678 339.816772,319.767365 
	C340.239197,327.657257 340.612061,334.620758 340.997742,342.475800 
M359.049774,319.972107 
	C358.597321,323.439697 360.344391,323.244080 362.924774,322.602264 
	C367.732513,321.406433 372.625031,320.551331 376.993622,319.654694 
	C377.514893,330.132996 375.443298,339.840881 380.414673,349.061737 
	C380.414673,339.132080 380.414673,329.202454 380.414673,318.990295 
	C384.112854,318.990295 387.599213,319.142853 391.056549,318.893341 
	C392.039459,318.822418 392.937927,317.581238 393.875092,316.876709 
	C393.014374,316.254333 392.166260,315.112549 391.291016,315.091339 
	C383.961151,314.913757 376.588776,314.494598 369.309418,315.104889 
	C365.886993,315.391815 362.640625,317.778625 359.049774,319.972107 
M214.001709,326.299896 
	C213.666321,321.223145 213.556763,316.114899 212.856522,311.088989 
	C212.649170,309.600555 210.777634,308.343994 209.389114,306.637634 
	C208.545883,308.103973 208.090820,308.523071 208.104385,308.926422 
	C208.397583,317.653534 208.613449,326.386902 209.152359,335.100006 
	C209.329086,337.957428 210.066284,340.883209 211.131836,343.543549 
	C211.759140,345.109772 213.535156,346.215912 214.794540,347.528961 
	C215.369385,347.208557 215.944229,346.888184 216.519073,346.567780 
	C215.683182,340.119476 214.847290,333.671204 214.001709,326.299896 
z"/>
<path fill="#1266FF" opacity="1.000000" stroke="none" 
	d="
M249.999786,331.067444 
	C249.385818,337.357941 249.844757,342.773071 255.070068,346.759216 
	C255.789398,347.307983 255.543106,349.122528 255.906174,351.344238 
	C253.831604,350.335175 252.813690,349.977417 251.945419,349.396149 
	C244.700623,344.545654 243.877487,344.553223 236.446732,349.783325 
	C233.150696,352.103302 228.232285,350.859650 225.776794,347.463074 
	C219.902100,339.336945 224.009125,319.371460 231.771469,313.728363 
	C236.642548,310.187164 243.399811,312.157654 246.855530,319.033081 
	C248.616135,322.535980 248.995850,326.732880 249.999786,331.067444 
M243.953445,324.770508 
	C240.420837,318.567474 234.432129,317.859650 231.291916,323.578461 
	C229.619370,326.624390 228.868240,330.237549 228.071732,333.680420 
	C227.590225,335.761688 226.974976,338.477997 227.877686,340.095184 
	C231.307968,346.240326 235.872925,346.986542 241.912079,342.991608 
	C239.112274,340.060028 236.296051,337.111267 233.479813,334.162476 
	C233.867676,333.557343 234.255539,332.952209 234.643402,332.347107 
	C238.261581,333.733795 241.879745,335.120514 246.645538,336.947052 
	C245.740662,332.869049 244.928619,329.209473 243.953445,324.770508 
z"/>
<path fill="#1266FF" opacity="1.000000" stroke="none" 
	d="
M144.223358,331.001465 
	C142.834137,331.796295 141.288589,332.482880 141.132416,333.404846 
	C140.749466,335.665436 141.007263,338.034546 141.007263,340.947845 
	C149.621902,338.189911 157.891373,335.542511 166.160858,332.895081 
	C166.492737,333.356354 166.824631,333.817596 167.156509,334.278870 
	C164.077698,336.712585 161.278519,339.693146 157.851379,341.445709 
	C153.262024,343.792603 148.260452,345.435944 143.298218,346.921539 
	C138.544968,348.344513 136.246231,346.343506 136.013016,341.194946 
	C135.937714,339.532440 136.000290,337.863708 136.000061,336.197815 
	C135.999863,334.708557 136.000015,333.219330 136.000015,331.420685 
	C134.666702,331.142456 133.459045,330.890442 131.480270,330.477509 
	C135.785934,325.124207 140.010300,319.705017 132.132919,314.376373 
	C135.539062,308.816803 150.978226,308.279053 159.167435,314.610535 
	C152.491989,315.348907 147.118332,315.943268 141.355484,316.580688 
	C141.355484,319.268250 141.355484,322.324921 141.355484,326.139313 
	C147.966736,326.139313 154.648209,326.139313 161.329697,326.139313 
	C161.553772,326.788452 161.777832,327.437622 162.001907,328.086761 
	C160.232452,329.056519 158.532394,330.662354 156.679184,330.864624 
	C152.727951,331.295776 148.697266,330.998871 144.223358,331.001465 
z"/>
<path fill="#1266FF" opacity="1.000000" stroke="none" 
	d="
M309.999939,343.001648 
	C306.132812,344.380554 302.716949,345.931732 299.147095,346.934692 
	C294.637482,348.201660 292.271454,346.327637 292.034576,341.556427 
	C291.870483,338.251801 292.003021,334.932434 292.003021,331.385773 
	C290.583649,331.110260 289.361542,330.873047 286.784821,330.372925 
	C288.878754,328.500214 290.252045,327.272003 291.915375,325.784424 
	C291.155823,322.135498 294.771118,316.657349 287.940887,314.583618 
	C291.712067,308.776550 307.107056,308.308746 315.145233,314.625488 
	C308.499512,315.353668 303.117279,315.943451 297.351685,316.575195 
	C297.351685,319.272156 297.351685,322.325531 297.351685,326.124542 
	C303.955811,326.124542 310.628784,326.124542 317.463928,326.124542 
	C316.112518,330.998962 316.112518,330.999146 308.749847,330.999939 
	C304.966370,331.000336 301.182922,331.000000 297.207703,331.000000 
	C297.207703,334.432312 297.207703,337.376709 297.207703,340.881287 
	C305.601624,338.193512 313.850372,335.552185 322.816742,332.681122 
	C320.592407,339.232880 314.913666,340.391327 309.999939,343.001648 
z"/>
<path fill="#1266FF" opacity="1.000000" stroke="none" 
	d="
M410.973480,316.000000 
	C408.869568,316.000000 407.231812,316.000000 405.298553,316.000000 
	C405.298553,319.382172 405.298553,322.437500 405.298553,326.251801 
	C412.081268,326.251801 418.768890,326.251801 425.679504,326.251801 
	C423.881927,330.999359 423.881927,330.999481 416.533905,330.999969 
	C412.893677,331.000214 409.253448,331.000000 405.308350,331.000000 
	C405.308350,334.224213 405.308350,337.149780 405.308350,340.826050 
	C413.677032,338.164612 422.006531,335.515625 430.335999,332.866638 
	C430.658569,333.362152 430.981110,333.857666 431.303680,334.353149 
	C428.241364,336.693878 425.440643,339.558807 422.053772,341.249207 
	C417.298218,343.622711 412.181702,345.368439 407.079651,346.923492 
	C402.626373,348.280792 400.261200,346.293549 400.031128,341.475494 
	C399.880371,338.318054 400.002625,335.147552 400.002625,331.624451 
	C398.727722,331.242676 397.426941,330.853119 394.977570,330.119598 
	C396.918304,328.432892 398.307983,327.225128 399.913666,325.829620 
	C399.913666,323.069244 399.913666,319.918793 399.913666,316.784760 
	C398.536163,316.020844 397.218597,315.290161 395.854248,314.533539 
	C399.849243,308.882050 414.432770,308.367981 421.737701,314.641785 
	C418.304993,315.094513 414.872314,315.547241 410.973480,316.000000 
z"/>
<path fill="#1266FF" opacity="1.000000" stroke="none" 
	d="
M280.432098,331.077362 
	C281.254486,326.251038 281.772705,321.721802 282.398346,317.207458 
	C282.478668,316.627960 283.117340,316.125854 283.505096,315.576965 
	C287.492981,325.314453 284.518341,342.646759 269.651703,347.058594 
	C260.026611,349.914917 256.405762,347.205963 255.871658,337.002472 
	C255.478928,329.499786 257.670258,322.815521 260.485901,316.216370 
	C261.167450,314.619019 263.250458,313.619659 264.689026,312.345306 
	C265.131104,312.658630 265.573181,312.971954 266.015259,313.285248 
	C264.923462,317.386871 263.814453,321.483978 262.746521,325.591797 
	C262.135620,327.941711 261.234924,330.290924 261.114502,332.673340 
	C260.985962,335.215759 260.982758,339.633240 262.049805,340.005219 
	C264.870697,340.988617 268.886261,341.278137 271.345886,339.906464 
	C274.796387,337.982239 277.269806,334.305939 280.432098,331.077362 
z"/>
<path fill="#1266FF" opacity="1.000000" stroke="none" 
	d="
M176.782364,314.631775 
	C185.426346,313.967804 193.771576,312.820984 202.111786,316.459717 
	C197.645416,321.236267 191.954803,317.605957 187.328995,319.445862 
	C187.328995,329.312653 187.328995,339.214081 187.328995,349.115509 
	C186.833054,349.156586 186.337097,349.197662 185.841156,349.238739 
	C185.227417,344.481171 184.371643,339.738983 184.067688,334.961700 
	C183.760483,330.133331 183.999969,325.270203 183.999969,319.693787 
	C178.441208,320.756653 172.485077,321.895477 166.500412,323.039764 
	C166.126495,317.678528 169.159775,315.312500 176.782364,314.631775 
z"/>
<path fill="#1266FF" opacity="1.000000" stroke="none" 
	d="
M340.991333,342.030029 
	C340.612061,334.620758 340.239197,327.657257 339.816772,319.767365 
	C334.672607,320.738678 328.713165,321.863892 322.572052,323.023438 
	C320.838043,319.262787 323.785797,316.898651 325.911957,316.256805 
	C336.401642,313.090057 347.062622,312.855560 358.216980,316.079132 
	C353.775635,321.423401 348.102905,317.602661 343.393860,319.464325 
	C343.393860,329.197113 343.393860,339.106079 343.393860,349.015045 
	C342.962189,349.058533 342.530518,349.102020 342.098846,349.145508 
	C341.731812,346.922272 341.364777,344.699036 340.991333,342.030029 
z"/>
<path fill="#1266FF" opacity="1.000000" stroke="none" 
	d="
M359.182129,319.592957 
	C362.640625,317.778625 365.886993,315.391815 369.309418,315.104889 
	C376.588776,314.494598 383.961151,314.913757 391.291016,315.091339 
	C392.166260,315.112549 393.014374,316.254333 393.875092,316.876709 
	C392.937927,317.581238 392.039459,318.822418 391.056549,318.893341 
	C387.599213,319.142853 384.112854,318.990295 380.414673,318.990295 
	C380.414673,329.202454 380.414673,339.132080 380.414673,349.061737 
	C375.443298,339.840881 377.514893,330.132996 376.993622,319.654694 
	C372.625031,320.551331 367.732513,321.406433 362.924774,322.602264 
	C360.344391,323.244080 358.597321,323.439697 359.182129,319.592957 
z"/>
<path fill="#1266FF" opacity="1.000000" stroke="none" 
	d="
M214.006561,326.761414 
	C214.847290,333.671204 215.683182,340.119476 216.519073,346.567780 
	C215.944229,346.888184 215.369385,347.208557 214.794540,347.528961 
	C213.535156,346.215912 211.759140,345.109772 211.131836,343.543549 
	C210.066284,340.883209 209.329086,337.957428 209.152359,335.100006 
	C208.613449,326.386902 208.397583,317.653534 208.104385,308.926422 
	C208.090820,308.523071 208.545883,308.103973 209.389114,306.637634 
	C210.777634,308.343994 212.649170,309.600555 212.856522,311.088989 
	C213.556763,316.114899 213.666321,321.223145 214.006561,326.761414 
z"/>
<path fill="#000000" opacity="1.000000" stroke="none" 
	d="
M244.035019,325.160217 
	C244.928619,329.209473 245.740662,332.869049 246.645538,336.947052 
	C241.879745,335.120514 238.261581,333.733795 234.643402,332.347107 
	C234.255539,332.952209 233.867676,333.557343 233.479813,334.162476 
	C236.296051,337.111267 239.112274,340.060028 241.912079,342.991608 
	C235.872925,346.986542 231.307968,346.240326 227.877686,340.095184 
	C226.974976,338.477997 227.590225,335.761688 228.071732,333.680420 
	C228.868240,330.237549 229.619370,326.624390 231.291916,323.578461 
	C234.432129,317.859650 240.420837,318.567474 244.035019,325.160217 
z"/>
</svg>